<?xml version="1.0" encoding="UTF-8" standalone="no"?>
<svg width="24px" height="24px" viewBox="0 0 24 24" version="1.1" xmlns="http://www.w3.org/2000/svg" xmlns:xlink="http://www.w3.org/1999/xlink" xmlns:sketch="http://www.bohemiancoding.com/sketch/ns">
    <!-- Generator: Sketch 3.2.2 (9983) - http://www.bohemiancoding.com/sketch -->
    <title>content</title>
    <desc>Created with Sketch.</desc>
    <defs></defs>
    <g id="Page-1" stroke="none" stroke-width="1" fill="none" fill-rule="evenodd" sketch:type="MSPage">
        <g id="content" sketch:type="MSArtboardGroup" fill="#000000">
            <rect id="Rectangle-32" sketch:type="MSShapeGroup" x="1" y="1" width="5" height="4"></rect>
            <rect id="Rectangle-33" sketch:type="MSShapeGroup" x="8" y="1" width="9" height="4"></rect>
            <rect id="Rectangle-35" sketch:type="MSShapeGroup" x="5" y="8.04052734" width="6" height="2.95947266"></rect>
            <rect id="Rectangle-36" sketch:type="MSShapeGroup" x="12" y="8.04052734" width="3" height="2.95947266"></rect>
            <rect id="Rectangle-37" sketch:type="MSShapeGroup" x="16" y="8.04052734" width="7" height="2.95947266"></rect>
            <rect id="Rectangle-39" sketch:type="MSShapeGroup" x="1" y="12.0405273" width="2" height="2.95947266"></rect>
            <rect id="Rectangle-40" sketch:type="MSShapeGroup" x="4" y="12.0405273" width="5" height="2.95947266"></rect>
            <rect id="Rectangle-42" sketch:type="MSShapeGroup" x="10" y="12.0405273" width="7" height="2.95947266"></rect>
            <rect id="Rectangle-43" sketch:type="MSShapeGroup" x="18" y="12.0405273" width="5" height="2.95947266"></rect>
            <rect id="Rectangle-49" sketch:type="MSShapeGroup" x="1" y="16.0405273" width="6" height="2.95947266"></rect>
            <rect id="Rectangle-41" sketch:type="MSShapeGroup" x="8" y="16.0405273" width="4" height="2.95947266"></rect>
            <rect id="Rectangle-44" sketch:type="MSShapeGroup" x="13" y="16.0405273" width="5" height="2.95947266"></rect>
            <rect id="Rectangle-48" sketch:type="MSShapeGroup" x="19" y="16.0405273" width="4" height="2.95947266"></rect>
            <rect id="Rectangle-45" sketch:type="MSShapeGroup" x="1" y="20.0405273" width="4" height="2.95947266"></rect>
            <rect id="Rectangle-46" sketch:type="MSShapeGroup" x="6" y="20.0405273" width="3" height="2.95947266"></rect>
            <rect id="Rectangle-47" sketch:type="MSShapeGroup" x="10" y="20.0405273" width="7" height="2.95947266"></rect>
            <rect id="Rectangle-47" sketch:type="MSShapeGroup" x="1" y="8.04052734" width="3" height="2.95947266"></rect>
        </g>
    </g>
</svg>