<?xml version="1.0" encoding="UTF-8" standalone="no"?>
<svg width="24px" height="24px" viewBox="0 0 24 24" version="1.1" xmlns="http://www.w3.org/2000/svg" xmlns:xlink="http://www.w3.org/1999/xlink" xmlns:sketch="http://www.bohemiancoding.com/sketch/ns">
    <!-- Generator: Sketch 3.2.2 (9983) - http://www.bohemiancoding.com/sketch -->
    <title>fullscreen</title>
    <desc>Created with Sketch.</desc>
    <defs></defs>
    <g id="Page-1" stroke="none" stroke-width="1" fill="none" fill-rule="evenodd" sketch:type="MSPage">
        <g id="fullscreen" sketch:type="MSArtboardGroup" fill="#000000">
            <path d="M3.5,24.5 L2.5,24.5 L2.5,11.5 L4.5,13.1276855 L4.5,22.5 L16.5,22.5 L16.5,5.5 L18.5,5.5 L18.5,23 L18.5,24.5 L3.5,24.5 Z M2.94287109,5.5 L4.55932617,7.5 L16.5,7.5 L16.5,5.5 L2.94287109,5.5 Z" id="Rectangle-15" sketch:type="MSShapeGroup" transform="translate(10.500000, 15.000000) rotate(90.000000) translate(-10.500000, -15.000000) "></path>
            <path d="M16.4292981,12.8126314 L23,13 L23,5.86517403 L20.7826144,8.63128342 L11.9651688,0.906195973 L10.9867897,2.01613683 L18.6641882,10.711703 L16.4292981,12.8126314 Z" id="Triangle-3" sketch:type="MSShapeGroup" transform="translate(17.000000, 7.000000) rotate(-90.000000) translate(-17.000000, -7.000000) "></path>
        </g>
    </g>
</svg>