<?xml version="1.0" encoding="UTF-8" standalone="no"?>
<svg width="24px" height="24px" viewBox="0 0 24 24" version="1.1" xmlns="http://www.w3.org/2000/svg" xmlns:xlink="http://www.w3.org/1999/xlink" xmlns:sketch="http://www.bohemiancoding.com/sketch/ns">
    <!-- Generator: Sketch 3.2.2 (9983) - http://www.bohemiancoding.com/sketch -->
    <title>pagesize</title>
    <desc>Created with Sketch.</desc>
    <defs></defs>
    <g id="Page-1" stroke="none" stroke-width="1" fill="none" fill-rule="evenodd" sketch:type="MSPage">
        <g id="pagesize" sketch:type="MSArtboardGroup" fill="#000000">
            <rect id="left-leader" sketch:type="MSShapeGroup" x="1" y="1" width="1" height="9"></rect>
            <rect id="right-leader" sketch:type="MSShapeGroup" x="22" y="1" width="1" height="9"></rect>
            <path d="M3,21 L21,21 L21,13 L21,13 L7.01978444,13 L3,17.0197844 L3,21 Z M2.5,23 L23,23 L23,22 L23,22 L23,11 L21.5,11 L6.18790691,11 L6.18790691,11.0034504 L1.06009103,16.1312663 L1,16.1312663 L1,23 L2.5,23 Z" id="Rectangle-26" sketch:type="MSShapeGroup"></path>
            <path d="M1,11 L1,12 L3.76472974,12 L4.79378247,11 L1,11 Z M1,12 L1,14.739502 L2,13.828776 L2,12 L1,12 Z" id="Rectangle-24" sketch:type="MSShapeGroup"></path>
            <path d="M6.2,3 L6.2,1.4 L2.2,3.5 L6.2,5.6 L6.2,4 L17.8,4 L17.8,5.6 L21.8,3.5 L17.8,1.4 L17.8,3 L6.2,3 Z" id="dimension-arrow" sketch:type="MSShapeGroup"></path>
        </g>
    </g>
</svg>