<?xml version="1.0" encoding="UTF-8" standalone="no"?>
<svg width="24px" height="24px" viewBox="0 0 24 24" version="1.1" xmlns="http://www.w3.org/2000/svg" xmlns:xlink="http://www.w3.org/1999/xlink" xmlns:sketch="http://www.bohemiancoding.com/sketch/ns">
    <!-- Generator: Sketch 3.2.2 (9983) - http://www.bohemiancoding.com/sketch -->
    <title>scale</title>
    <desc>Created with Sketch.</desc>
    <defs></defs>
    <g id="Page-1" stroke="none" stroke-width="1" fill="none" fill-rule="evenodd" sketch:type="MSPage">
        <g id="scale" sketch:type="MSArtboardGroup" fill="#000000">
            <path d="M1,1 L1,2 L10,2 L10,1 L1,1 Z M10,1 L10,10 L11,10 L11,1 L10,1 Z M1,10 L1,11 L11,11 L11,10 L1,10 Z M1,2 L1,10 L2,10 L2,2 L1,2 Z" id="Rectangle-11" sketch:type="MSShapeGroup"></path>
            <path d="M21,21 L21,5 L21,5 L12,5 L12,3 L23,3 L23,4.5 L23,21.5 L23,23 L4.5,23 L3,23 L3,12 L5,12 L5,21 L21,21 Z" id="Rectangle-15" sketch:type="MSShapeGroup"></path>
            <path d="M15.7759774,19.8795487 L20,20 L20,15.4133262 L18.5745379,17.1915393 L12.90618,12.2254117 L14.2709181,11 L11,11 L11,14.2661939 L12.2772219,12.9389451 L17.2126924,18.5289519 L15.7759774,19.8795487 Z" id="Triangle-3" sketch:type="MSShapeGroup"></path>
        </g>
    </g>
</svg>